<svg xmlns="http://www.w3.org/2000/svg" viewBox="0 0 24 30" enable-background="new 0 0 24 24" x="0px" y="0px"><g><path fill="#FFFFFF" d="M20 20c-.553 0-1-.447-1-1v-15.958c0-.552.447-1 1-1s1 .448 1 1v15.958c0 .553-.447 1-1 1zM20 4.042c-.553 0-1-.448-1-1 0-.551-.448-1-1-1h-15c-.552 0-1-.448-1-1s.448-1 1-1h15c1.654 0 3 1.346 3 3 0 .552-.447 1-1 1zM21 23.958c-.553 0-1-.447-1-1 0-.552.447-1 1-1 .552 0 1-.448 1-1v-.958h-13c-.552 0-1-.447-1-1 0-.552.448-1 1-1h14c.553 0 1 .448 1 1v1.958c0 1.654-1.346 3-3 3zM7 23.958c-1.654 0-3-1.346-3-3 0-.552.448-1 1-1s1 .448 1 1 .449 1 1 1 1-.448 1-1v-1.958c0-.552.448-1 1-1s1 .448 1 1v1.958c0 1.654-1.346 3-3 3zM21 23.958h-14c-1.654 0-3-1.346-3-3v-14.958h-3c-.552 0-1-.448-1-1v-1.958c0-1.654 1.346-3 3-3s3 1.346 3 3v17.917c0 .552.449 1 1 1h14c.553 0 1 .447 1 1 0 .551-.447.999-1 .999zm-19-19.958h2v-.958c0-.551-.449-1-1-1s-1 .449-1 1v.958zM16 11h-7c-.552 0-1-.448-1-1s.448-1 1-1h7c.553 0 1 .448 1 1s-.447 1-1 1zM16 7.06h-4c-.55 0-1-.45-1-1s.45-1 1-1h4c.55 0 1 .45 1 1s-.45 1-1 1zm-7 0c-.55 0-1-.45-1-1s.45-1 1-1 1 .45 1 1-.45 1-1 1zM16 15h-7c-.552 0-1-.447-1-1s.448-1 1-1h7c.553 0 1 .447 1 1s-.447 1-1 1z"/></g><text x="0" y="39" fill="#FFFFFF" font-size="5px" font-weight="bold" font-family="'Helvetica Neue', Helvetica, Arial-Unicode, Arial, Sans-serif">Created by ✦ Shmidt Sergey ✦</text><text x="0" y="44" fill="#FFFFFF" font-size="5px" font-weight="bold" font-family="'Helvetica Neue', Helvetica, Arial-Unicode, Arial, Sans-serif">from the Noun Project</text></svg>
